<svg width="48" height="48" viewBox="0 0 48 48" fill="none" xmlns="http://www.w3.org/2000/svg">
<path d="M40.7058 11.0249C40.7058 11.0249 40.6956 11.0188 40.6833 11.0086L40.7058 11.0249C39.4688 9.41516 37.2711 7.57926 37.2711 7.57926C34.7471 5.59359 31.6918 4.15299 28.2347 3.45102C22.4198 2.27124 16.8212 3.45815 12.384 6.40151C7.93365 9.32856 4.64379 14.0243 3.45471 19.8743C2.15447 26.2735 3.7066 32.3792 7.29424 36.9731C7.29424 36.9731 7.61955 37.4234 8.26304 38.1203L8.26712 38.1162C10.7656 35.6354 11.6273 31.9768 10.5943 28.6127C9.8784 26.2816 9.73868 23.7264 10.2588 21.1692C11.0848 17.1052 13.4405 13.6972 16.6733 11.6301C19.5236 9.83084 23.0501 9.07793 26.8182 9.84306C34.9092 11.4844 39.3015 19.1438 37.7392 26.8308C36.9132 30.8948 34.5574 34.3017 31.3247 36.3699C28.4733 38.1692 24.9469 38.9221 21.1798 38.158C20.4526 38.0102 19.7561 37.8146 19.0912 37.5742C15.8636 36.4086 12.2504 37.2278 9.81619 39.6454C10.0977 39.8961 10.4005 40.1558 10.7279 40.4207C13.2519 42.4064 16.3072 43.847 19.7643 44.549C25.5781 45.7288 31.1778 44.5418 35.6149 41.5985C40.0653 38.6725 43.3562 33.9757 44.5453 28.1257C45.8455 21.7265 44.2934 15.6208 40.7058 11.0269V11.0249ZM10.7289 40.4197L10.8166 40.3331C10.8166 40.3331 10.8217 40.3372 10.8237 40.3392C10.7921 40.3667 10.7605 40.3922 10.7289 40.4197Z" fill="#0059FF"/>
</svg>
