<svg width="152" height="52" viewBox="0 0 152 52" fill="none" xmlns="http://www.w3.org/2000/svg">
<path d="M49.0882 16.464L37.9282 27.624H21.9282L18.6882 30.864L25.6242 37.8L32.5602 30.864L30.9202 29.224H35.4482L37.0882 30.864L25.6242 42.328L14.1762 30.88L20.6242 24.424H36.6002L44.5602 16.464L39.9602 11.864L42.2242 9.59998L49.0882 16.464Z" fill="#C1FF72"/>
<path d="M14.6482 24.424H18.3602L15.1602 27.624H13.3202L2.16016 16.464L9.00016 9.63198L11.2642 11.896L6.68816 16.464L14.6482 24.424Z" fill="#C1FF72"/>
<path d="M76.9952 18.7998H80.1242V24.7644H76.9952V18.7998Z" fill="url(#paint0_linear_444_7458)"/>
<path d="M88.9244 18.7998H92.0534V24.7644H88.9244V18.7998Z" fill="url(#paint1_linear_444_7458)"/>
<path d="M76.9952 27.8934H80.1242V33.858H76.9952V27.8934Z" fill="url(#paint2_linear_444_7458)"/>
<path d="M88.9244 27.8934H92.0534V33.858H88.9244V27.8934Z" fill="url(#paint3_linear_444_7458)"/>
<path d="M80.1242 24.7644H88.9244V27.8934H80.1242V24.7644Z" fill="url(#paint4_linear_444_7458)"/>
<path d="M94.7913 30.729H97.9202V33.858H94.7913V30.729Z" fill="url(#paint5_linear_444_7458)"/>
<path d="M62.3282 18.7998H71.1284V21.9288H62.3282V18.7998Z" fill="url(#paint6_linear_444_7458)"/>
<path d="M59.1992 21.9288H62.3282V30.729H59.1992V21.9288Z" fill="url(#paint7_linear_444_7458)"/>
<path d="M71.1284 21.9288H74.2574V30.729H71.1284V21.9288Z" fill="url(#paint8_linear_444_7458)"/>
<path d="M62.3282 30.729H71.1284V33.858H62.3282V30.729Z" fill="url(#paint9_linear_444_7458)"/>
<path d="M118.558 18.7998H121.687V30.729H118.558V18.7998Z" fill="url(#paint10_linear_444_7458)"/>
<path d="M130.488 18.7998H133.617V30.729H130.488V18.7998Z" fill="url(#paint11_linear_444_7458)"/>
<path d="M121.687 30.729H130.488V33.858H121.687V30.729Z" fill="url(#paint12_linear_444_7458)"/>
<path d="M100.762 18.7998H103.891V33.858H100.762V18.7998Z" fill="url(#paint13_linear_444_7458)"/>
<path d="M100.762 18.7998H115.821V21.9288H100.762V18.7998Z" fill="url(#paint14_linear_444_7458)"/>
<path d="M100.762 24.8622H112.692V27.9912H100.762V24.8622Z" fill="url(#paint15_linear_444_7458)"/>
<path d="M136.354 18.7998H139.483V33.858H136.354V18.7998Z" fill="url(#paint16_linear_444_7458)"/>
<path d="M148.87 18.7998H151.999V33.858H148.87V18.7998Z" fill="url(#paint17_linear_444_7458)"/>
<path d="M139.483 21.6354H142.612V24.7644H139.483V21.6354Z" fill="url(#paint18_linear_444_7458)"/>
<path d="M142.612 24.7644H145.741V27.8934H142.612V24.7644Z" fill="url(#paint19_linear_444_7458)"/>
<path d="M145.741 27.8934H148.87V31.0223H145.741V27.8934Z" fill="url(#paint20_linear_444_7458)"/>
<defs>
<linearGradient id="paint0_linear_444_7458" x1="59.1992" y1="26.3289" x2="151.999" y2="26.3289" gradientUnits="userSpaceOnUse">
<stop stop-color="#C8FB7C"/>
</linearGradient>
<linearGradient id="paint1_linear_444_7458" x1="59.1992" y1="26.3289" x2="151.999" y2="26.3289" gradientUnits="userSpaceOnUse">
<stop stop-color="#C8FB7C"/>
</linearGradient>
<linearGradient id="paint2_linear_444_7458" x1="59.1992" y1="26.3289" x2="151.999" y2="26.3289" gradientUnits="userSpaceOnUse">
<stop stop-color="#C8FB7C"/>
</linearGradient>
<linearGradient id="paint3_linear_444_7458" x1="59.1992" y1="26.3289" x2="151.999" y2="26.3289" gradientUnits="userSpaceOnUse">
<stop stop-color="#C8FB7C"/>
</linearGradient>
<linearGradient id="paint4_linear_444_7458" x1="59.1992" y1="26.3289" x2="151.999" y2="26.3289" gradientUnits="userSpaceOnUse">
<stop stop-color="#C8FB7C"/>
</linearGradient>
<linearGradient id="paint5_linear_444_7458" x1="59.1992" y1="26.3289" x2="151.999" y2="26.3289" gradientUnits="userSpaceOnUse">
<stop stop-color="#C8FB7C"/>
</linearGradient>
<linearGradient id="paint6_linear_444_7458" x1="59.1992" y1="26.3289" x2="151.999" y2="26.3289" gradientUnits="userSpaceOnUse">
<stop stop-color="#C8FB7C"/>
</linearGradient>
<linearGradient id="paint7_linear_444_7458" x1="59.1992" y1="26.3289" x2="151.999" y2="26.3289" gradientUnits="userSpaceOnUse">
<stop stop-color="#C8FB7C"/>
</linearGradient>
<linearGradient id="paint8_linear_444_7458" x1="59.1992" y1="26.3289" x2="151.999" y2="26.3289" gradientUnits="userSpaceOnUse">
<stop stop-color="#C8FB7C"/>
</linearGradient>
<linearGradient id="paint9_linear_444_7458" x1="59.1992" y1="26.3289" x2="151.999" y2="26.3289" gradientUnits="userSpaceOnUse">
<stop stop-color="#C8FB7C"/>
</linearGradient>
<linearGradient id="paint10_linear_444_7458" x1="59.1992" y1="26.3289" x2="151.999" y2="26.3289" gradientUnits="userSpaceOnUse">
<stop stop-color="#C8FB7C"/>
</linearGradient>
<linearGradient id="paint11_linear_444_7458" x1="59.1992" y1="26.3289" x2="151.999" y2="26.3289" gradientUnits="userSpaceOnUse">
<stop stop-color="#C8FB7C"/>
</linearGradient>
<linearGradient id="paint12_linear_444_7458" x1="59.1992" y1="26.3289" x2="151.999" y2="26.3289" gradientUnits="userSpaceOnUse">
<stop stop-color="#C8FB7C"/>
</linearGradient>
<linearGradient id="paint13_linear_444_7458" x1="59.1992" y1="26.3289" x2="151.999" y2="26.3289" gradientUnits="userSpaceOnUse">
<stop stop-color="#C8FB7C"/>
</linearGradient>
<linearGradient id="paint14_linear_444_7458" x1="59.1992" y1="26.3289" x2="151.999" y2="26.3289" gradientUnits="userSpaceOnUse">
<stop stop-color="#C8FB7C"/>
</linearGradient>
<linearGradient id="paint15_linear_444_7458" x1="59.1992" y1="26.3289" x2="151.999" y2="26.3289" gradientUnits="userSpaceOnUse">
<stop stop-color="#C8FB7C"/>
</linearGradient>
<linearGradient id="paint16_linear_444_7458" x1="59.1992" y1="26.3289" x2="151.999" y2="26.3289" gradientUnits="userSpaceOnUse">
<stop stop-color="#C8FB7C"/>
</linearGradient>
<linearGradient id="paint17_linear_444_7458" x1="59.1992" y1="26.3289" x2="151.999" y2="26.3289" gradientUnits="userSpaceOnUse">
<stop stop-color="#C8FB7C"/>
</linearGradient>
<linearGradient id="paint18_linear_444_7458" x1="59.1992" y1="26.3289" x2="151.999" y2="26.3289" gradientUnits="userSpaceOnUse">
<stop stop-color="#C8FB7C"/>
</linearGradient>
<linearGradient id="paint19_linear_444_7458" x1="59.1992" y1="26.3289" x2="151.999" y2="26.3289" gradientUnits="userSpaceOnUse">
<stop stop-color="#C8FB7C"/>
</linearGradient>
<linearGradient id="paint20_linear_444_7458" x1="59.1992" y1="26.3289" x2="151.999" y2="26.3289" gradientUnits="userSpaceOnUse">
<stop stop-color="#C8FB7C"/>
</linearGradient>
</defs>
</svg>
