<svg width="132" height="36" viewBox="0 0 132 36" fill="none" xmlns="http://www.w3.org/2000/svg">
<g clip-path="url(#clip0_1907_14202)">
<path d="M54.5317 0.662109H45.3034C45.3034 3.58776 47.6588 5.9588 50.5633 5.9588H53.7449C57.9727 5.9588 59.5949 9.02775 59.5949 11.8497C59.5949 14.6717 57.9727 17.8401 53.7449 17.8401H43.5172V5.9588V0.662109C40.3139 0.662109 37.7166 3.27758 37.7166 6.50331V35.3157H43.5172V23.1377H54.5317C59.6443 23.1377 65.4458 19.2764 65.4458 11.8506C65.4458 4.42475 59.6451 0.662109 54.5317 0.662109Z" fill="#318BF5"/>
<path d="M111.29 6.39036C108.751 2.7963 104.642 0.662109 100.262 0.662109L112.602 18.0879L100.115 35.3157H107.096L115.846 23.286L124.499 35.3157H131.529L111.29 6.39036Z" fill="white"/>
<path d="M120.924 6.40061L117.019 11.9603L120.598 16.9552L131.933 0.663086C127.556 0.663086 123.451 2.80233 120.923 6.40145L120.924 6.40061Z" fill="#318BF5"/>
<path d="M75.9113 35.3151H69.7348C69.7348 32.1475 69.6377 21.7632 69.6436 14.849C69.6469 11.3358 72.4761 8.49023 75.9648 8.49023C75.9648 8.49023 75.9104 35.283 75.9104 35.3159L75.9113 35.3151Z" fill="#318BF5"/>
<path d="M96.9593 11.6903C96.5132 7.23061 93.7803 3.38283 89.5156 1.73331C87.6331 1.00505 85.6083 0.698242 83.5978 0.698242H69.6235C69.6319 3.91722 72.2259 6.52258 75.4225 6.52258H75.9398V6.49055H83.5978C85.7917 6.42818 88.0458 7.15559 89.4344 8.90036C90.176 9.83259 90.5485 11.0185 90.6849 12.2045C90.9185 14.235 90.5142 35.3164 90.6657 35.3164C92.7909 35.3164 94.917 35.3164 97.0422 35.3164C97.0422 34.9304 97.002 12.1143 96.9593 11.6912V11.6903Z" fill="#318BF5"/>
<path d="M31.0155 7.26611C31.0155 7.26611 31.0071 7.26105 30.9971 7.25262L31.0155 7.26611C30.0002 5.93435 28.1964 4.41547 28.1964 4.41547C26.1247 2.77268 23.6169 1.58084 20.7794 1.00009C16.0066 0.0240326 11.4113 1.00599 7.76941 3.44109C4.1166 5.8627 1.41634 9.74756 0.440358 14.5874C-0.626859 19.8816 0.647105 24.933 3.59179 28.7336C3.59179 28.7336 3.8588 29.1061 4.38697 29.6826L4.39031 29.6793C6.44104 27.6269 7.14834 24.6001 6.30042 21.8168C5.71283 19.8883 5.59815 17.7744 6.02504 15.6587C6.70303 12.2964 8.63658 9.477 11.29 7.76678C13.6295 6.27824 16.5239 5.65535 19.6168 6.28836C26.2578 7.64625 29.8629 13.9831 28.5806 20.3426C27.9026 23.7049 25.969 26.5235 23.3156 28.2346C20.9753 29.7231 18.0808 30.346 14.9888 29.7138C14.392 29.5916 13.8203 29.4298 13.2746 29.2309C10.6254 28.2666 7.65976 28.9443 5.66177 30.9445C5.89279 31.1518 6.14139 31.3667 6.41007 31.5859C8.48173 33.2287 10.9895 34.4205 13.827 35.0013C18.5989 35.9773 23.1951 34.9954 26.837 32.5603C30.4898 30.1395 33.1909 26.2538 34.1669 21.4139C35.2341 16.1198 33.9602 11.0684 31.0155 7.26779V7.26611ZM6.41091 31.585L6.48289 31.5134C6.48289 31.5134 6.48708 31.5168 6.48875 31.5185C6.46281 31.5412 6.43686 31.5623 6.41091 31.585Z" fill="#318BF5"/>
</g>
<defs>
<clipPath id="clip0_1907_14202">
<rect width="132" height="36" fill="white"/>
</clipPath>
</defs>
</svg>
